<?xml version="1.0" standalone="no"?>
<!DOCTYPE svg PUBLIC "-//W3C//DTD SVG 20010904//EN"
 "http://www.w3.org/TR/2001/REC-SVG-20010904/DTD/svg10.dtd">
<svg version="1.0" xmlns="http://www.w3.org/2000/svg"
 width="365.000000pt" height="365.000000pt" viewBox="0 0 365.000000 365.000000"
 preserveAspectRatio="xMidYMid meet">
<metadata>
Created by potrace 1.11, written by Peter Selinger 2001-2013
</metadata>
<g transform="translate(0.000000,365.000000) scale(0.100000,-0.100000)"
fill="#000000" stroke="none">
<path d="M820 3631 c0 -40 -11 -51 -50 -51 -22 0 -42 5 -45 10 -3 6 -35 10
-71 10 l-64 0 0 -175 0 -175 -40 0 c-36 0 -40 -2 -40 -26 0 -23 -3 -25 -37
-22 -38 3 -60 28 -24 28 11 0 25 9 31 20 8 16 8 20 -3 20 -8 0 -24 -9 -37 -20
-37 -32 -130 -24 -130 11 0 11 5 19 10 19 6 0 10 5 10 11 0 21 -24 2 -33 -27
-5 -16 -16 -37 -25 -46 -10 -13 -13 -29 -8 -58 l6 -40 -43 0 c-24 0 -48 -5
-55 -12 -15 -15 -15 -53 -1 -80 10 -18 8 -24 -12 -39 -13 -10 -41 -19 -61 -19
-35 0 -38 2 -38 28 0 35 16 52 51 52 33 0 45 15 29 35 -8 10 -31 15 -64 15
-29 0 -57 5 -64 12 -9 9 -12 -32 -12 -185 l0 -197 25 0 c14 0 28 -7 31 -15 8
-20 30 -19 38 1 5 12 14 14 46 9 23 -4 61 -1 90 6 39 10 53 10 62 1 16 -16 48
-15 91 3 20 8 57 15 82 15 27 0 52 6 60 14 11 10 30 13 74 9 35 -3 72 -1 88 6
15 6 44 12 63 13 19 1 42 7 50 14 8 6 45 15 82 19 73 7 142 35 152 60 4 11 13
14 25 10 11 -3 22 -1 26 5 3 5 19 10 34 10 16 0 39 8 52 19 13 10 45 21 71 25
25 4 52 14 58 21 7 8 18 15 25 15 6 0 20 9 30 20 9 10 34 24 54 31 20 6 54 19
76 29 22 10 61 21 88 25 29 4 47 11 47 19 0 34 30 39 208 42 109 2 184 -2 196
-8 16 -8 23 -7 35 8 11 12 26 18 44 16 17 -2 37 4 47 13 13 12 36 17 74 16 43
0 56 3 56 14 0 21 98 21 106 1 3 -8 12 -12 21 -9 13 5 13 7 -1 15 -36 20 -10
26 108 27 120 1 124 1 119 -19 -7 -27 26 -27 55 0 19 18 35 20 188 20 l167 0
-7 78 c-4 42 -14 118 -21 167 -8 50 -15 93 -15 98 0 4 -38 7 -84 7 l-85 0 -4
-32 -4 -33 -1 33 -2 32 -225 0 -225 0 0 -47 c0 -55 -6 -54 -13 2 -3 22 -10 41
-16 43 -6 2 -11 15 -11 28 l0 24 -755 0 c-738 0 -755 0 -755 -19z m1405 -21
c4 -6 -7 -10 -24 -10 -17 0 -31 5 -31 10 0 6 11 10 24 10 14 0 28 -4 31 -10z
m-1007 -55 c20 -23 22 -37 22 -129 0 -126 -11 -145 -82 -153 -42 -5 -50 -3
-78 25 -29 30 -30 33 -30 129 0 105 10 135 54 154 35 14 89 2 114 -26z m-518
-125 l0 -150 -45 0 -45 0 0 150 0 150 45 0 45 0 0 -150z m298 134 c21 -14 22
-22 22 -138 0 -81 -4 -126 -12 -134 -7 -7 -44 -12 -95 -12 l-83 0 0 150 0 150
73 0 c49 0 80 -5 95 -16z m365 -26 l15 -43 1 43 1 42 40 0 40 0 0 -151 0 -150
-42 3 c-40 3 -43 5 -54 43 l-12 40 -1 -42 -1 -43 -40 0 -40 0 0 150 0 150 39
0 c37 0 40 -2 54 -42z m187 -7 c0 -42 -3 -49 -22 -55 -30 -7 -37 2 -42 57 l-5
47 35 0 34 0 0 -49z m200 14 c0 -31 -3 -35 -26 -35 l-26 0 4 -115 3 -115 -45
0 -45 0 3 115 4 115 -26 0 c-23 0 -26 4 -26 35 l0 35 90 0 90 0 0 -35z m191
-25 c4 -40 6 -45 8 -20 3 71 9 80 56 80 l42 0 10 -52 10 -53 2 53 1 52 46 0
47 0 -7 -62 c-4 -35 -12 -102 -18 -150 l-11 -88 -52 0 c-57 0 -63 7 -66 75 -1
21 -4 15 -11 -22 l-10 -53 -54 0 c-49 0 -54 2 -55 23 0 12 -2 31 -4 42 -4 24
-25 210 -25 225 0 7 16 10 43 8 l42 -3 6 -55z m389 48 c0 -7 9 -71 20 -142 11
-71 20 -133 20 -137 0 -5 -20 -9 -45 -9 -41 0 -45 2 -45 25 0 14 -4 25 -10 25
-5 0 -10 -11 -10 -25 0 -23 -4 -25 -45 -25 -29 0 -45 4 -45 13 0 6 8 74 17
150 l17 137 63 0 c44 0 63 -4 63 -12z m153 -30 l15 -43 1 43 1 42 40 0 40 0 0
-151 0 -150 -42 3 c-40 3 -43 5 -54 43 l-12 40 -1 -42 -1 -43 -40 0 -40 0 0
150 0 150 39 0 c37 0 40 -2 54 -42z m220 0 l15 -43 1 43 1 42 40 0 40 0 0
-151 0 -150 -42 3 c-40 3 -43 5 -54 43 l-12 40 -1 -42 -1 -43 -40 0 -40 0 0
150 0 150 39 0 c37 0 40 -2 54 -42z m277 30 c0 -7 9 -71 20 -142 11 -71 20
-133 20 -137 0 -5 -20 -9 -45 -9 -41 0 -45 2 -45 25 0 14 -4 25 -10 25 -5 0
-10 -11 -10 -25 0 -23 -4 -25 -45 -25 -29 0 -45 4 -45 13 0 6 8 74 17 150 l17
137 63 0 c44 0 63 -4 63 -12z m-1150 -55 c1 -10 7 -64 14 -120 7 -57 9 -103 5
-103 -5 0 -11 17 -14 38 -11 62 -12 63 -52 60 l-38 -3 0 -52 c1 -29 -3 -53 -7
-53 -4 0 -8 41 -8 90 l0 90 29 0 c45 0 49 20 4 21 -23 1 -29 3 -15 6 12 2 22
10 22 18 0 13 17 21 48 24 6 0 12 -7 12 -16z m-1057 -31 c24 -21 21 -37 -8
-50 -14 -6 -25 -18 -25 -27 0 -9 9 -15 25 -15 32 0 32 -22 1 -36 -22 -10 -25
-9 -30 19 -3 16 -6 54 -6 84 0 56 3 59 43 25z m817 -112 l0 -119 63 -3 c56 -3
62 -5 65 -25 3 -19 -1 -23 -26 -23 -16 0 -35 -7 -42 -15 -7 -8 -16 -15 -21
-15 -13 0 -11 38 3 42 6 2 8 10 4 16 -9 15 -91 16 -115 0 -40 -24 -46 -8 -43
111 l3 111 45 0 c37 0 44 3 44 20 0 11 5 20 10 20 6 0 10 -47 10 -120z m-781
-84 c-1 -22 -5 -52 -9 -66 -8 -25 -8 -25 -10 5 -2 26 -4 23 -12 -17 -8 -37
-14 -47 -34 -51 -21 -4 -28 2 -43 36 -15 33 -20 37 -24 21 -3 -14 -5 -12 -6 8
-1 22 4 27 26 30 20 2 29 10 35 34 8 31 42 55 66 47 7 -3 12 -22 11 -47z
m1006 4 c4 -6 -7 -10 -25 -10 -18 0 -29 4 -25 10 3 6 15 10 25 10 10 0 22 -4
25 -10z m398 -47 c-7 -2 -19 -2 -25 0 -7 3 -2 5 12 5 14 0 19 -2 13 -5z m-998
-51 c5 -12 13 -22 17 -22 5 0 8 -7 8 -15 0 -20 35 -19 56 3 13 12 38 18 94 20
70 4 79 2 99 -19 35 -38 28 -44 -66 -54 -32 -3 -91 -11 -130 -16 -78 -11 -123
-5 -104 14 17 17 13 75 -5 85 -10 5 -14 15 -9 21 10 17 28 9 40 -17z m-814
-42 c29 -16 25 -50 -6 -50 -16 0 -25 6 -25 15 0 9 -11 20 -25 25 -14 5 -25 12
-25 15 0 9 61 5 81 -5z"/>
<path d="M1144 3425 c0 -55 1 -76 3 -47 2 29 2 74 0 100 -2 26 -3 2 -3 -53z"/>
<path d="M924 3430 c0 -52 1 -74 3 -47 2 26 2 68 0 95 -2 26 -3 4 -3 -48z"/>
<path d="M2262 3410 c0 -14 2 -19 5 -12 2 6 2 18 0 25 -3 6 -5 1 -5 -13z"/>
<path d="M2912 3410 c0 -14 2 -19 5 -12 2 6 2 18 0 25 -3 6 -5 1 -5 -13z"/>
<path d="M206 3225 c-16 -24 -16 -25 4 -25 15 0 20 7 20 25 0 14 -2 25 -4 25
-2 0 -11 -11 -20 -25z"/>
<path d="M2470 3219 c0 -24 23 -21 28 4 2 10 -3 17 -12 17 -10 0 -16 -9 -16
-21z"/>
<path d="M2547 3234 c-14 -14 -6 -24 19 -24 16 0 24 5 22 13 -5 14 -31 21 -41
11z"/>
<path d="M2660 3090 c0 -5 7 -10 15 -10 8 0 15 5 15 10 0 6 -7 10 -15 10 -8 0
-15 -4 -15 -10z"/>
<path d="M2542 3079 c3 -8 21 -15 41 -17 21 -2 35 -7 32 -12 -3 -5 -1 -11 5
-15 5 -3 10 1 10 9 0 9 5 16 10 16 6 0 10 -4 10 -10 0 -5 7 -10 15 -10 8 0 15
5 15 10 0 6 -6 10 -14 10 -8 0 -16 4 -18 9 -1 5 -27 12 -57 16 -43 6 -53 5
-49 -6z"/>
<path d="M2670 3028 c-41 -15 -54 -53 -22 -61 11 -3 8 -5 -9 -6 -15 0 -32 6
-39 14 -7 8 -27 15 -44 15 -18 0 -41 7 -52 15 -10 8 -38 15 -61 15 -39 0 -43
-2 -43 -25 0 -20 5 -25 25 -25 15 0 24 5 23 13 -2 7 9 13 26 15 25 3 28 1 18
-11 -11 -13 -6 -15 35 -13 26 0 48 -3 48 -9 0 -5 -15 -9 -33 -7 -19 2 -39 -1
-45 -7 -13 -10 -120 -8 -148 4 -9 3 -21 -1 -29 -10 -7 -8 -23 -15 -36 -15 -13
0 -27 -6 -31 -12 -13 -20 -45 -34 -80 -33 -24 0 -33 -5 -38 -20 -5 -19 -6 -19
-16 -2 -5 9 -22 17 -37 17 -15 0 -40 7 -56 15 -15 8 -41 15 -57 15 -27 0 -29
-3 -29 -38 0 -31 -6 -43 -30 -60 -27 -21 -30 -21 -30 -5 -1 16 -2 16 -16 -2
-8 -11 -12 -25 -9 -33 2 -7 -11 -27 -30 -43 -22 -19 -35 -40 -35 -55 0 -14 -6
-24 -14 -24 -7 0 -20 -7 -27 -16 -11 -13 -26 -15 -78 -10 -35 3 -66 8 -69 11
-3 3 9 20 27 39 l32 33 -26 7 c-24 6 -34 0 -76 -45 -44 -47 -50 -51 -66 -38
-10 8 -22 20 -26 27 -14 21 -45 14 -49 -10 -5 -34 -45 -36 -73 -4 -31 36 -65
33 -124 -9 -40 -29 -57 -35 -100 -35 -29 0 -51 5 -51 10 0 6 -9 20 -20 32 -11
12 -20 17 -20 10 0 -6 5 -14 10 -17 21 -13 -3 -27 -36 -22 -29 5 -34 3 -34
-14 0 -13 -7 -19 -21 -19 -17 0 -20 -5 -17 -30 2 -19 -3 -34 -12 -40 -22 -14
-30 -12 -30 6 0 10 -7 14 -23 12 -17 -2 -23 -11 -27 -37 -4 -30 -10 -35 -54
-49 -39 -13 -52 -13 -68 -3 -15 9 -23 10 -31 2 -6 -6 -28 -11 -48 -11 -31 0
-38 -4 -41 -22 -5 -35 -53 -37 -79 -4 -11 14 -26 26 -34 26 -7 0 -18 7 -25 15
-8 10 -30 15 -62 15 -46 0 -51 2 -61 30 -8 21 -18 30 -33 30 -50 0 -83 12 -86
33 -4 26 -22 32 -40 13 -11 -12 -15 -12 -30 1 -16 14 -18 14 -24 -1 -14 -35
-68 -8 -92 47 -6 15 -16 27 -22 27 -7 0 -10 -428 -10 -1320 l0 -1320 1825 0
1825 0 0 769 0 770 -26 -2 c-39 -3 -42 22 -5 29 l31 7 0 118 c0 131 -4 139
-70 139 -19 0 -33 6 -37 16 -9 24 17 36 65 30 l42 -6 0 45 c0 43 -1 44 -27 41
-16 -2 -22 -1 -15 1 21 7 13 21 -9 16 -12 -4 -22 -17 -26 -35 l-6 -30 -22 24
c-12 13 -20 26 -18 31 2 4 1 7 -4 5 -12 -3 -70 33 -106 65 l-32 28 23 16 c32
22 28 34 -26 69 -46 30 -48 34 -61 100 -15 75 -58 223 -71 239 -4 6 -23 40
-43 76 l-36 67 23 21 c33 31 79 118 67 126 -6 3 -19 26 -30 51 -11 24 -27 47
-37 51 -14 5 -13 8 7 19 27 15 26 16 -14 18 -18 1 -36 -7 -55 -27 -26 -28 -26
-29 -8 -42 17 -13 17 -15 3 -21 -26 -9 -37 4 -37 46 0 21 -4 42 -10 45 -5 3
-10 17 -10 30 0 13 -5 27 -11 31 -8 4 -9 -1 -4 -16 l7 -22 -21 21 c-12 12 -21
26 -21 31 0 6 -7 10 -16 10 -8 0 -12 5 -9 10 3 6 -2 13 -11 17 -10 4 -19 2
-22 -5 -2 -7 -19 -12 -38 -12 -28 0 -34 -4 -34 -21 0 -16 -4 -19 -22 -13 -13
3 -28 11 -35 16 -7 5 -17 7 -23 3 -6 -4 -16 -3 -23 2 -20 16 -76 8 -92 -13
-14 -18 -14 -18 -15 8 0 14 6 28 13 31 6 2 10 7 7 9 -3 3 -16 1 -30 -4z m240
-78 c0 -5 -5 -10 -11 -10 -5 0 -7 5 -4 10 3 6 8 10 11 10 2 0 4 -4 4 -10z
m-230 -10 c0 -5 -2 -10 -4 -10 -3 0 -8 5 -11 10 -3 6 -1 10 4 10 6 0 11 -4 11
-10z m16 -51 c137 -25 291 -115 406 -237 109 -116 198 -327 198 -472 0 -162
-104 -301 -295 -397 -107 -54 -109 -54 -221 26 -249 178 -365 247 -504 303
-88 35 -287 84 -382 93 -92 10 -94 14 -81 136 23 207 140 364 353 473 97 50
138 65 230 82 69 14 201 11 296 -7z m-686 -8 c0 -5 -9 -11 -20 -14 -22 -6 -26
3 -8 21 11 11 28 7 28 -7z m30 -37 c0 -8 -4 -12 -10 -9 -5 3 -10 10 -10 16 0
5 5 9 10 9 6 0 10 -7 10 -16z m-5 -44 c3 -5 1 -10 -4 -10 -6 0 -11 5 -11 10 0
6 2 10 4 10 3 0 8 -4 11 -10z m-890 -227 c-11 -3 -27 -11 -35 -18 -32 -26 -44
-27 -21 -2 15 17 34 27 50 26 21 -1 22 -2 6 -6z m648 -133 c-3 -11 -9 -20 -14
-20 -10 0 -12 24 -2 33 13 13 21 7 16 -13z m-905 -47 c-3 -16 -18 -18 -134
-18 -100 0 -135 -3 -150 -15 -18 -14 -18 -13 1 9 19 22 24 23 115 16 81 -6 98
-4 109 9 19 23 64 21 59 -1z m901 1 c3 -3 0 -9 -6 -15 -5 -5 -8 -32 -5 -59 3
-38 1 -50 -9 -50 -11 0 -11 -2 1 -11 11 -8 -2 -9 -50 -5 -35 4 -71 12 -78 20
-10 9 -27 12 -54 8 -37 -5 -40 -3 -36 19 2 20 10 25 40 27 28 2 37 8 42 27 5
21 11 24 56 23 48 -1 49 -2 44 -27 -6 -25 -6 -25 12 -9 14 14 16 21 6 30 -21
21 -15 40 11 32 12 -3 24 -8 26 -10z m-1244 -39 c6 -2 -16 -4 -47 -4 -31 -1
-59 3 -62 7 -5 8 85 5 109 -3z m376 -38 c-13 -13 -26 -3 -16 12 3 6 11 8 17 5
6 -4 6 -10 -1 -17z m-266 3 c3 -5 1 -10 -4 -10 -6 0 -11 5 -11 10 0 6 2 10 4
10 3 0 8 -4 11 -10z m342 -47 c2 -6 -5 -13 -17 -16 -12 -3 -20 0 -20 7 0 26
29 33 37 9z m-123 -19 c17 -6 22 -29 9 -37 -5 -3 -27 -8 -50 -12 -43 -7 -43
-7 -43 24 0 29 3 31 34 31 19 0 41 -3 50 -6z m757 -15 c46 -6 95 -17 109 -24
14 -7 72 -18 130 -24 147 -16 199 -27 325 -67 115 -37 272 -115 378 -186 274
-184 470 -373 644 -620 45 -64 108 -138 144 -170 l63 -56 -16 -38 c-9 -22 -20
-54 -25 -73 -7 -31 -14 -36 -58 -48 -35 -10 -87 -13 -175 -9 -108 4 -154 12
-340 59 -118 30 -220 52 -226 50 -6 -2 -45 -55 -85 -116 -139 -211 -264 -318
-473 -406 -37 -16 -70 -21 -137 -21 l-89 0 -19 38 c-31 60 -117 123 -168 121
-24 -1 -23 -2 11 -10 44 -11 103 -58 128 -103 9 -17 17 -34 18 -38 0 -5 -83
-8 -185 -8 -102 0 -185 3 -185 6 0 14 26 52 59 88 39 42 28 40 -31 -7 -20 -16
-41 -43 -47 -59 -9 -25 -14 -28 -38 -22 -70 16 -216 115 -207 139 7 18 -12 21
-19 3 -4 -8 -8 -4 -13 10 -3 12 -12 21 -20 20 -21 -5 -114 74 -135 114 -10 20
-30 76 -44 124 -24 83 -47 134 -30 69 7 -28 27 -118 42 -189 l6 -29 -59 6
c-63 6 -186 62 -263 119 -40 29 -41 32 -41 87 0 127 60 231 132 231 34 0 84
-29 114 -67 14 -17 14 -17 5 4 -6 11 -30 37 -53 57 l-43 35 1 173 c0 152 4
188 28 293 24 105 75 245 90 245 8 0 80 -109 105 -157 39 -78 273 -373 296
-373 4 0 -15 26 -42 58 -133 155 -243 309 -243 338 1 24 21 47 85 100 86 71
229 160 318 197 85 35 270 87 313 87 13 0 26 4 29 10 4 6 -7 8 -27 4 -223 -37
-361 -91 -529 -205 -47 -33 -89 -59 -93 -59 -4 0 -19 -9 -35 -21 -20 -14 -35
-18 -54 -14 -31 8 -32 12 -12 39 20 26 19 61 -2 98 -18 30 -18 30 7 47 55 36
70 58 70 106 0 52 9 55 79 30 37 -13 52 -13 119 0 148 27 279 32 413 14z
m-810 -67 c-7 -2 -18 1 -23 6 -8 8 -4 9 13 5 13 -4 18 -8 10 -11z m2658 -451
c18 -11 -12 -28 -65 -37 -34 -5 -53 4 -54 28 0 14 99 22 119 9z m-224 -116
c-53 -27 -100 -29 -100 -5 0 18 35 28 100 29 l50 0 -50 -24z m-1906 -1140 c20
-10 31 -25 35 -50 9 -47 2 -55 -45 -55 -35 0 -39 3 -39 25 0 14 -4 25 -10 25
-21 0 -9 -40 18 -57 68 -42 82 -63 82 -124 0 -50 -3 -60 -26 -78 -48 -38 -141
-23 -163 26 -14 31 -14 80 0 88 6 4 26 4 45 1 30 -6 34 -11 34 -36 0 -17 5
-30 10 -30 6 0 10 11 10 25 0 17 -12 33 -45 55 -54 37 -65 56 -65 113 0 43 15
67 50 80 29 11 81 7 109 -8z m261 -30 c0 -31 -3 -35 -25 -35 l-25 0 0 -130 0
-130 -50 0 -50 0 0 130 0 130 -25 0 c-22 0 -25 4 -25 35 l0 35 100 0 100 0 0
-35z m122 -102 l2 -138 3 138 4 137 49 0 50 0 0 -141 0 -141 -30 -30 c-28 -28
-35 -30 -81 -26 -51 5 -85 28 -89 58 -1 8 -2 75 -1 148 l1 132 45 0 45 0 2
-137z m328 117 c18 -18 20 -33 20 -149 0 -162 1 -161 -118 -161 l-87 0 0 165
0 165 83 0 c69 0 85 -3 102 -20z m140 1 c0 -11 3 -28 7 -38 6 -14 9 -10 13 17
5 34 7 35 53 38 26 2 47 2 47 0 0 -2 -14 -46 -30 -98 -21 -66 -30 -116 -30
-162 l0 -68 -49 0 -48 0 4 48 c4 34 -4 77 -26 153 -17 59 -31 112 -31 118 0 6
19 11 45 11 38 0 45 -3 45 -19z m230 -45 c0 -34 -3 -91 -6 -125 l-7 -61 -33 0
c-31 0 -33 2 -38 43 -3 23 -7 79 -10 125 l-4 82 49 0 49 0 0 -64z m-990 -48
c0 -13 -23 -5 -28 10 -2 7 2 10 12 6 9 -3 16 -11 16 -16z m170 -44 c0 -48 -3
-65 -12 -62 -18 6 -23 109 -6 119 7 5 14 9 16 9 1 0 2 -30 2 -66z m1903 -81
c23 -6 16 -27 -11 -31 -34 -5 -102 17 -102 34 0 12 9 14 48 9 26 -4 55 -9 65
-12z m-1083 -58 c0 -35 0 -35 -45 -35 -45 0 -45 0 -45 35 0 35 0 35 45 35 45
0 45 0 45 -35z"/>
<path d="M838 1069 c9 -23 18 -37 20 -31 3 10 -24 72 -32 72 -3 0 3 -19 12
-41z"/>
<path d="M1970 305 c0 -68 4 -104 10 -100 6 3 10 48 10 100 0 52 -4 97 -10
100 -6 4 -10 -32 -10 -100z"/>
<path d="M2210 2980 c-11 -7 -4 -10 28 -10 23 0 42 5 42 10 0 13 -50 13 -70 0z"/>
<path d="M2057 2953 c-15 -14 -6 -24 20 -21 34 4 43 28 11 28 -14 0 -28 -3
-31 -7z"/>
<path d="M1130 2890 c0 -5 4 -10 9 -10 6 0 13 5 16 10 3 6 -1 10 -9 10 -9 0
-16 -4 -16 -10z"/>
<path d="M371 2683 c-53 -4 -53 -4 -35 -25 14 -15 16 -22 7 -25 -14 -5 -18
-82 -5 -84 4 -1 26 -2 49 -3 39 -2 42 0 54 36 11 33 10 40 -6 58 -10 11 -14
20 -8 20 5 0 18 7 29 15 21 16 29 15 -85 8z"/>
<path d="M43 2673 c26 -2 67 -2 90 0 23 2 2 3 -48 3 -50 0 -68 -1 -42 -3z"/>
<path d="M487 2610 c3 -11 9 -17 14 -14 14 8 10 34 -5 34 -9 0 -12 -7 -9 -20z"/>
</g>
</svg>
